<?xml version='1.0' encoding='utf-8'?>
<svg xmlns="http://www.w3.org/2000/svg" version="1.1" x="0%" y="0%" width="100%" height="100%" viewBox="0 0 3000.0 3000.0" enable-background="new 0 0 3000.0 3000.0"> <path fill="#FFFFFF" stroke="#000000" fill-opacity="0.008" stroke-opacity="1.000" fill-rule="nonzero" stroke-width="26.79688" stroke-linejoin="miter" stroke-linecap="square" d="M543.76,2035.98C563.78,1959.48,583.80,1882.98,598.65,1836.72C613.51,1790.46,623.19,1774.43,607.55,1765.05C591.91,1755.67,550.95,1752.93,519.54,1734.55C488.13,1716.17,466.28,1682.14,438.21,1637.81C410.15,1593.47,375.87,1538.81,351.11,1467.49C326.35,1396.16,311.11,1308.16,308.90,1222.56C306.68,1136.96,317.50,1053.75,325.52,999.41C333.54,945.07,338.75,919.60,357.91,890.25C377.08,860.90,410.20,827.68,438.41,813.99C466.62,800.30,489.92,806.15,515.52,800.06C541.12,793.97,569.03,775.93,595.80,722.12C622.57,668.31,648.19,578.72,669.10,508.98C690.00,439.23,706.18,389.34,738.44,345.74C770.70,302.15,819.03,264.86,874.89,227.04C930.74,189.21,994.10,150.85,1060.26,119.31C1126.41,87.78,1195.35,63.06,1279.97,58.53C1364.59,54.00,1464.90,69.65,1576.17,88.88C1687.44,108.12,1809.67,130.93,1933.05,205.30C2056.42,279.68,2180.93,405.61,2240.82,485.12C2300.72,564.63,2296.00,597.72,2312.79,653.88C2329.59,710.04,2367.91,789.26,2389.79,842.17C2411.66,895.07,2417.11,921.64,2427.58,955.24C2438.06,988.83,2453.57,1029.44,2467.43,1025.58C2481.29,1021.72,2493.50,973.39,2521.26,984.14C2549.03,994.89,2592.34,1064.73,2619.52,1116.98C2646.69,1169.23,2657.72,1203.89,2658.40,1244.57C2659.07,1285.25,2649.41,1331.95,2644.41,1357.82C2639.42,1383.69,2639.10,1388.72,2649.62,1414.72C2660.15,1440.72,2681.51,1487.69,2688.91,1529.73C2696.32,1571.76,2689.76,1608.86,2681.74,1641.22C2673.72,1673.58,2664.22,1701.21,2648.69,1716.51C2633.16,1731.80,2611.60,1734.75,2601.15,1748.93C2590.70,1763.11,2591.36,1788.51,2574.33,1819.89C2557.30,1851.27,2522.58,1888.61,2504.47,1931.44C2486.35,1974.27,2484.85,2022.59,2473.14,2073.07C2461.43,2123.55,2439.52,2176.20,2407.87,2204.35C2376.22,2232.49,2334.82,2236.13,2307.34,2241.66C2279.85,2247.20,2266.28,2254.65,2241.77,2278.12C2217.27,2301.59,2181.83,2341.10,2156.37,2372.39C2130.91,2403.69,2115.43,2426.78,2099.93,2438.78C2084.43,2450.77,2068.91,2451.68,2055.63,2438.33C2042.35,2424.99,2031.30,2397.40,2026.56,2407.41C2021.81,2417.41,2023.36,2465.01,2011.13,2492.09C1998.91,2519.17,1972.90,2525.73,1953.48,2520.77C1934.06,2515.82,1921.23,2499.36,1909.46,2488.37C1897.69,2477.39,1886.97,2471.88,1875.72,2474.20C1864.47,2476.52,1852.69,2486.68,1820.42,2515.33C1788.15,2543.98,1735.41,2591.12,1673.97,2657.35C1612.54,2723.58,1542.41,2808.92,1468.39,2851.32C1394.37,2893.72,1316.46,2893.19,1242.36,2905.79C1168.27,2918.39,1097.98,2944.12,1009.44,2904.96C920.90,2865.81,814.11,2761.78,743.25,2674.56C672.39,2587.35,637.46,2516.95,609.03,2453.95C580.60,2390.95,558.66,2335.35,545.29,2282.82C531.92,2230.28,527.11,2180.81,528.28,2140.18C529.46,2099.55,536.61,2067.77,543.76,2035.98z"/> <path fill="#FFFFFF" stroke="#000000" fill-opacity="0.008" stroke-opacity="1.000" fill-rule="nonzero" stroke-width="26.79688" stroke-linejoin="miter" stroke-linecap="square" d="M625.07,1599.28C648.14,1553.37,671.21,1507.45,695.97,1428.52C720.72,1349.59,747.17,1237.64,759.40,1169.52C771.63,1101.40,769.65,1077.11,785.30,1025.25C800.95,973.40,834.22,893.97,855.30,848.42C876.38,802.88,885.27,791.23,924.31,778.31C963.34,765.40,1032.54,751.21,1095.95,760.92C1159.37,770.62,1217.01,804.22,1267.66,826.36C1318.31,848.51,1361.97,859.20,1426.22,861.96C1490.48,864.71,1575.33,859.52,1634.92,873.96C1694.50,888.41,1728.82,922.49,1776.69,960.43C1824.57,998.36,1885.99,1040.15,1915.22,1091.32C1944.44,1142.48,1941.47,1203.03,1941.94,1270.94C1942.41,1338.86,1946.31,1414.14,1953.11,1493.39C1959.90,1572.63,1969.58,1655.84,1979.87,1705.26C1990.16,1754.69,2001.06,1770.34,2034.55,1771.66C2068.04,1772.99,2124.13,1759.99,2159.16,1759.73C2194.19,1759.47,2208.16,1771.93,2217.46,1801.19C2226.77,1830.44,2231.40,1876.49,2221.36,1923.46C2211.32,1970.44,2186.60,2018.34,2162.38,2068.31C2138.15,2118.28,2114.42,2170.32,2094.21,2210.45C2074.00,2250.57,2057.31,2278.79,2040.61,2307.01"/> <path fill="#FFFFFF" stroke="#000000" fill-opacity="0.008" stroke-opacity="1.000" fill-rule="nonzero" stroke-width="26.79688" stroke-linejoin="miter" stroke-linecap="square" d="M2002.02,2168.48C2028.84,2113.33,2055.66,2058.17,2063.67,2023.07C2071.69,1987.97,2060.91,1972.92,2052.97,1961.82C2045.02,1950.72,2039.92,1943.56,2040.58,1933.10C2041.24,1922.63,2047.66,1908.85,2054.91,1893.27C2062.17,1877.69,2070.26,1860.29,2082.53,1862.73C2094.79,1865.17,2111.22,1887.43,2120.54,1905.09C2129.87,1922.74,2132.08,1935.78,2134.29,1948.82"/> <path fill="#FFFFFF" stroke="#000000" fill-opacity="0.008" stroke-opacity="1.000" fill-rule="nonzero" stroke-width="26.79688" stroke-linejoin="miter" stroke-linecap="square" d="M743.85,1482.16C788.45,1444.82,833.05,1407.49,874.07,1401.32C915.09,1395.14,952.54,1420.13,973.42,1438.57C994.30,1457.01,998.61,1468.90,1004.94,1481.89C1011.28,1494.89,1019.64,1509.00,1028.00,1523.11"/> <path fill="#FFFFFF" stroke="#000000" fill-opacity="0.008" stroke-opacity="1.000" fill-rule="nonzero" stroke-width="26.79688" stroke-linejoin="miter" stroke-linecap="square" d="M882.31,1410.08C913.21,1410.08,938.25,1437.30,938.25,1470.88C938.25,1504.46,913.21,1531.68,882.31,1531.68C851.42,1531.68,826.38,1504.46,826.38,1470.88C826.38,1437.30,851.42,1410.08,882.31,1410.08z"/> <path fill="#FFFFFF" stroke="#000000" fill-opacity="0.008" stroke-opacity="1.000" fill-rule="nonzero" stroke-width="26.79688" stroke-linejoin="miter" stroke-linecap="square" d="M1349.65,1608.91C1376.29,1567.66,1402.93,1526.41,1451.88,1522.31C1500.82,1518.20,1572.07,1551.24,1615.45,1580.80C1658.83,1610.35,1674.34,1636.41,1688.67,1651.28C1703.00,1666.15,1716.15,1669.83,1729.31,1673.50"/> <path fill="#FFFFFF" stroke="#000000" fill-opacity="0.008" stroke-opacity="1.000" fill-rule="nonzero" stroke-width="26.79688" stroke-linejoin="miter" stroke-linecap="square" d="M1465.95,1544.94C1497.20,1544.94,1522.54,1569.38,1522.54,1599.54C1522.54,1629.69,1497.20,1654.13,1465.95,1654.13C1434.70,1654.13,1409.36,1629.69,1409.36,1599.54C1409.36,1569.38,1434.70,1544.94,1465.95,1544.94z"/> <path fill="#FFFFFF" stroke="#000000" fill-opacity="0.008" stroke-opacity="1.000" fill-rule="nonzero" stroke-width="26.79688" stroke-linejoin="miter" stroke-linecap="square" d="M831.66,2717.95C809.64,2647.87,787.62,2577.80,782.78,2547.61C777.93,2517.43,790.27,2527.13,785.25,2516.29C780.24,2505.45,757.88,2474.07,755.72,2447.74C753.55,2421.41,771.57,2400.14,780.22,2370.44C788.88,2340.74,788.16,2302.60,790.19,2277.93C792.23,2253.25,797.01,2242.04,786.89,2209.76C776.77,2177.49,751.74,2124.14,748.56,2083.98C745.37,2043.81,764.02,2016.82,782.85,1995.37C801.67,1973.93,820.68,1958.03,846.33,1940.80C871.99,1923.57,904.30,1905.01,933.28,1881.31C962.26,1857.61,987.91,1828.78,986.28,1839.38C984.65,1849.97,955.73,1900.00,952.57,1924.19C949.40,1948.39,971.99,1946.75,989.35,1959.01C1006.70,1971.27,1018.83,1997.43,1034.40,2013.46C1049.96,2029.50,1068.97,2035.42,1085.32,2032.23C1101.67,2029.04,1115.36,2016.75,1136.26,2006.77C1157.15,1996.80,1185.24,1989.16,1207.65,1988.93C1230.06,1988.71,1246.80,1995.90,1261.53,2004.49C1276.25,2013.07,1288.97,2023.04,1302.91,2020.50C1316.86,2017.96,1332.04,2002.91,1340.40,1987.13C1348.76,1971.36,1350.30,1954.86,1325.60,1929.35C1300.91,1903.84,1249.97,1869.33,1258.46,1878.19C1266.95,1887.05,1334.87,1939.28,1384.91,1989.53C1434.94,2039.78,1467.09,2088.04,1496.23,2137.34C1525.37,2186.64,1551.51,2236.98,1551.91,2272.91C1552.30,2308.85,1526.96,2330.37,1510.86,2370.15C1494.75,2409.92,1487.88,2467.95,1482.56,2525.07C1477.23,2582.19,1473.45,2638.39,1461.92,2673.80C1450.40,2709.20,1431.13,2723.81,1412.13,2738.63C1393.12,2753.46,1374.37,2768.51,1354.45,2780.69C1334.53,2792.87,1313.44,2802.17,1292.35,2811.48"/> <path fill="#FFFFFF" stroke="#000000" fill-opacity="0.008" stroke-opacity="1.000" fill-rule="nonzero" stroke-width="26.79688" stroke-linejoin="miter" stroke-linecap="square" d="M1384.91,1765.05C1436.48,1773.30,1488.06,1781.55,1554.98,1788.61C1621.91,1795.67,1704.19,1801.54,1739.83,1815.17C1775.46,1828.80,1764.46,1850.20,1767.78,1876.07C1771.09,1901.94,1788.72,1932.28,1806.36,1962.63"/> <path fill="#FFFFFF" stroke="#000000" fill-opacity="0.008" stroke-opacity="1.000" fill-rule="nonzero" stroke-width="26.79688" stroke-linejoin="miter" stroke-linecap="square" d="M657.69,1649.85C673.40,1636.59,689.10,1623.33,744.80,1623.75C800.50,1624.18,896.20,1638.29,946.88,1647.48C997.55,1656.66,1003.20,1660.92,1015.44,1660.90C1027.67,1660.87,1046.50,1656.54,1060.81,1643.26C1075.11,1629.98,1084.90,1607.74,1094.81,1589.04C1104.72,1570.35,1114.76,1555.21,1120.82,1525.04C1126.89,1494.88,1128.98,1449.68,1121.52,1416.28C1114.07,1382.89,1097.07,1361.29,1070.60,1342.65C1044.13,1324.00,1008.20,1308.29,969.83,1296.96C931.47,1285.63,890.69,1278.67,863.43,1281.68C836.17,1284.69,822.44,1297.68,808.71,1310.67"/> <path fill="#FFFFFF" stroke="#000000" fill-opacity="0.008" stroke-opacity="1.000" fill-rule="nonzero" stroke-width="26.79688" stroke-linejoin="miter" stroke-linecap="square" d="M1274.67,1618.56C1260.03,1577.71,1245.39,1536.86,1276.57,1498.03C1307.75,1459.19,1384.76,1422.38,1422.17,1406.49C1459.58,1390.59,1457.40,1395.62,1488.75,1406.29C1520.10,1416.97,1584.98,1433.28,1629.25,1446.21C1673.53,1459.13,1697.19,1468.67,1717.09,1481.26C1737.00,1493.85,1753.13,1509.49,1769.27,1525.13"/> <path fill="#FFFFFF" stroke="#000000" fill-opacity="0.008" stroke-opacity="1.000" fill-rule="nonzero" stroke-width="26.79688" stroke-linejoin="miter" stroke-linecap="square" d="M1962.37,2382.25C1994.45,2382.25,2020.46,2409.86,2020.46,2443.92C2020.46,2477.98,1994.45,2505.60,1962.37,2505.60C1930.30,2505.60,1904.29,2477.98,1904.29,2443.92C1904.29,2409.86,1930.30,2382.25,1962.37,2382.25z"/> <path fill="#FFFFFF" stroke="#000000" fill-opacity="1.000" stroke-opacity="1.000" fill-rule="nonzero" stroke-width="26.79688" stroke-linejoin="miter" stroke-linecap="square" d="M841.45,2182.06C905.50,2191.84,969.55,2201.62,1036.60,2213.72C1103.65,2225.82,1173.70,2240.24,1212.89,2247.13C1252.09,2254.01,1260.42,2253.35,1282.83,2254.21C1305.23,2255.08,1341.69,2257.46,1366.80,2258.59C1391.91,2259.73,1405.66,2259.61,1426.25,2258.59C1446.85,2257.57,1474.29,2255.64,1479.71,2267.30C1485.14,2278.95,1468.55,2304.19,1447.20,2327.81C1425.85,2351.43,1399.74,2373.43,1355.79,2382.63C1311.85,2391.83,1250.07,2388.23,1195.84,2379.87C1141.60,2371.52,1094.92,2358.42,1055.89,2348.84C1016.86,2339.26,985.48,2333.20,958.69,2320.51C931.90,2307.82,909.69,2288.51,890.92,2264.33C872.14,2240.15,856.79,2211.10,841.45,2182.06z"/> <path fill="#040404" stroke="#000000" fill-opacity="0.996" stroke-opacity="0.000" fill-rule="nonzero" stroke-width="18.517563" stroke-linejoin="miter" stroke-linecap="square" d="M877.61,1406.86C911.07,1406.86,938.20,1433.83,938.20,1467.09C938.20,1500.35,911.07,1527.32,877.61,1527.32C844.14,1527.32,817.01,1500.35,817.01,1467.09C817.01,1433.83,844.14,1406.86,877.61,1406.86z"/> <path fill="#FFFFFF" stroke="#000000" fill-opacity="0.996" stroke-opacity="0.000" fill-rule="nonzero" stroke-width="18.517563" stroke-linejoin="miter" stroke-linecap="square" d="M866.99,1422.44C878.42,1422.44,887.69,1431.18,887.69,1441.96C887.69,1452.74,878.42,1461.47,866.99,1461.47C855.55,1461.47,846.29,1452.74,846.29,1441.96C846.29,1431.18,855.55,1422.44,866.99,1422.44z"/> <path fill="#040404" stroke="#000000" fill-opacity="0.996" stroke-opacity="0.000" fill-rule="nonzero" stroke-width="18.517563" stroke-linejoin="miter" stroke-linecap="square" d="M1464.06,1545.97C1497.53,1545.97,1524.66,1572.94,1524.66,1606.20C1524.66,1639.47,1497.53,1666.43,1464.06,1666.43C1430.60,1666.43,1403.46,1639.47,1403.46,1606.20C1403.46,1572.94,1430.60,1545.97,1464.06,1545.97z"/> <path fill="#FFFFFF" stroke="#000000" fill-opacity="0.996" stroke-opacity="0.000" fill-rule="nonzero" stroke-width="18.517563" stroke-linejoin="miter" stroke-linecap="square" d="M1453.44,1561.55C1464.88,1561.55,1474.15,1570.29,1474.15,1581.07C1474.15,1591.85,1464.88,1600.59,1453.44,1600.59C1442.01,1600.59,1432.74,1591.85,1432.74,1581.07C1432.74,1570.29,1442.01,1561.55,1453.44,1561.55z"/> </svg>