<svg version="1.2" xmlns="http://www.w3.org/2000/svg" viewBox="0 0 2411 2895" width="2411" height="2895">
	<title>2-svg</title>
	<style>
		.s0 { opacity: 0;fill: #ffffff;stroke: #000000;stroke-linecap: square;stroke-width: 26.8 } 
		.s1 { fill: #ffffff;stroke: #000000;stroke-linecap: square;stroke-width: 26.8 } 
		.s2 { opacity: 1;fill: #040404;stroke: #000000;stroke-linecap: square;stroke-opacity: 0;stroke-width: 18.5 } 
		.s3 { opacity: 1;fill: #ffffff;stroke: #000000;stroke-linecap: square;stroke-opacity: 0;stroke-width: 18.5 } 
	</style>
	<path id="Layer" class="s0" d="m2177.7 2096.2c1.2 40.6-3.6 90.1-17 142.6-13.4 52.6-35.3 108.2-63.7 171.2-28.5 63-63.4 133.4-134.2 220.6-70.9 87.2-177.7 191.2-266.2 230.4-88.6 39.1-158.9 13.4-233 0.8-74.1-12.6-152-12.1-226-54.5-74-42.4-144.1-127.7-205.6-193.9-61.4-66.3-114.1-113.4-146.4-142.1-32.3-28.6-44.1-38.8-55.3-41.1-11.3-2.3-22 3.2-33.8 14.2-11.7 11-24.6 27.4-44 32.4-19.4 4.9-45.4-1.6-57.6-28.7-12.3-27.1-10.7-74.7-15.5-84.7-4.7-10-15.7 17.6-29 30.9-13.3 13.4-28.8 12.5-44.3 0.5-15.5-12-31-35.1-56.5-66.4-25.4-31.3-60.9-70.8-85.4-94.3-24.5-23.4-38-30.9-65.5-36.4-27.5-5.6-68.9-9.2-100.6-37.3-31.6-28.2-53.5-80.8-65.2-131.3-11.7-50.5-13.2-98.8-31.4-141.7-18.1-42.8-52.8-80.1-69.8-111.5-17.1-31.4-16.4-56.8-26.8-71-10.5-14.1-32.1-17.1-47.6-32.4-15.5-15.3-25-42.9-33-75.3-8.1-32.3-14.6-69.4-7.2-111.5 7.4-42 28.8-89 39.3-115 10.5-26 10.2-31 5.2-56.9-5-25.8-14.7-72.5-14-113.2 0.7-40.7 11.7-75.4 38.9-127.6 27.2-52.3 70.5-122.1 98.2-132.9 27.8-10.7 40 37.6 53.9 41.5 13.8 3.8 29.3-36.8 39.8-70.4 10.5-33.6 15.9-60.1 37.8-113 21.9-52.9 60.2-132.2 77-188.3 16.8-56.2 12.1-89.3 72-168.8 59.9-79.5 184.4-205.4 307.8-279.8 123.3-74.4 245.6-97.2 356.8-116.4 111.3-19.2 211.6-34.9 296.2-30.4 84.7 4.6 153.6 29.3 219.7 60.8 66.2 31.6 129.6 69.9 185.4 107.7 55.9 37.9 104.2 75.2 136.5 118.7 32.2 43.6 48.4 93.5 69.3 163.3 20.9 69.7 46.5 159.3 73.3 213.1 26.8 53.8 54.7 71.9 80.3 78 25.6 6.1 48.9 0.2 77.1 13.9 28.2 13.7 61.3 46.9 80.5 76.3 19.2 29.3 24.4 54.8 32.4 109.1 8 54.4 18.8 137.6 16.6 223.2-2.2 85.6-17.4 173.6-42.2 244.9-24.8 71.3-59 126-87.1 170.3-28.1 44.3-49.9 78.4-81.3 96.8-31.4 18.3-72.4 21.1-88.1 30.5-15.6 9.3-5.9 25.4 9 71.6 14.8 46.3 34.8 122.8 54.8 199.3 7.2 31.8 14.3 63.6 15.5 104.2z"/>
	<path id="Layer" class="s0" d="m665.4 2263c-16.7-28.2-33.4-56.4-53.6-96.6-20.2-40.1-44-92.1-68.2-142.1-24.2-50-48.9-97.9-59-144.8-10-47-5.4-93.1 3.9-122.3 9.3-29.3 23.3-41.7 58.3-41.5 35.1 0.3 91.2 13.3 124.7 12 33.4-1.4 44.3-17 54.6-66.4 10.3-49.5 20-132.7 26.8-211.9 6.8-79.3 10.7-154.5 11.2-222.5 0.4-67.9-2.5-128.4 26.7-179.6 29.2-51.1 90.6-92.9 138.5-130.9 47.9-37.9 82.2-72 141.8-86.4 59.6-14.5 144.4-9.3 208.7-12 64.2-2.8 107.9-13.5 158.5-35.6 50.7-22.2 108.3-55.8 171.7-65.5 63.5-9.7 132.7 4.5 171.7 17.4 39 12.9 47.9 24.6 69 70.1 21.1 45.6 54.4 125 70 176.9 15.6 51.8 13.7 76.1 25.9 144.2 12.2 68.1 38.7 180.1 63.4 259 24.8 79 47.9 124.9 70.9 170.8"/>
	<path id="Layer" class="s0" d="m571.7 1904.8c2.2-13 4.4-26.1 13.8-43.7 9.3-17.7 25.7-39.9 38-42.4 12.2-2.4 20.3 15 27.6 30.6 7.2 15.5 13.7 29.3 14.3 39.8 0.7 10.5-4.4 17.6-12.4 28.7-7.9 11.1-18.7 26.2-10.7 61.3 8 35.1 34.9 90.2 61.7 145.4"/>
	<path id="Layer" class="s0" d="m1678 1479.1c8.4-14.1 16.7-28.2 23.1-41.2 6.3-13 10.6-24.9 31.5-43.3 20.9-18.5 58.3-43.5 99.3-37.3 41.1 6.2 85.6 43.5 130.3 80.9"/>
	<path id="Layer" class="s0" d="m1823.7 1366.1c30.9 0 55.9 27.2 55.9 60.8 0 33.6-25 60.8-55.9 60.8-30.9 0-56-27.2-56-60.8 0-33.6 25.1-60.8 56-60.8z"/>
	<path id="Layer" class="s0" d="m976.7 1629.5c13.1-3.7 26.3-7.3 40.6-22.2 14.4-14.9 29.9-41 73.2-70.5 43.4-29.6 114.7-62.6 163.6-58.5 49 4.1 75.6 45.4 102.2 86.6"/>
	<path id="Layer" class="s0" d="m1240.1 1500.9c31.2 0 56.5 24.4 56.5 54.6 0 30.2-25.3 54.6-56.5 54.6-31.3 0-56.6-24.4-56.6-54.6 0-30.2 25.3-54.6 56.6-54.6z"/>
	<path id="Layer" class="s0" d="m1413.7 2767.5c-21.1-9.3-42.2-18.6-62.2-30.8-19.9-12.2-38.6-27.2-57.6-42.1-19-14.8-38.3-29.4-49.8-64.8-11.6-35.4-15.3-91.6-20.7-148.7-5.3-57.2-12.2-115.2-28.3-154.9-16.1-39.8-41.4-61.4-41-97.3 0.4-35.9 26.5-86.3 55.7-135.6 29.1-49.3 61.3-97.5 111.3-147.8 50-50.2 117.9-102.5 126.4-111.3 8.5-8.9-42.4 25.6-67.1 51.1-24.7 25.6-23.2 42.1-14.8 57.8 8.4 15.8 23.5 30.9 37.5 33.4 13.9 2.5 26.6-7.4 41.4-16 14.7-8.6 31.4-15.8 53.8-15.6 22.5 0.3 50.5 7.9 71.4 17.9 20.9 9.9 34.6 22.2 51 25.4 16.3 3.2 35.3-2.7 50.9-18.7 15.6-16.1 27.7-42.2 45.1-54.5 17.3-12.3 39.9-10.6 36.7-34.8-3.1-24.2-32.1-74.2-33.7-84.8-1.6-10.6 24 18.2 53 41.9 29 23.7 61.3 42.3 87 59.5 25.6 17.2 44.6 33.1 63.5 54.6 18.8 21.4 37.4 48.4 34.2 88.6-3.1 40.1-28.2 93.5-38.3 125.8-10.1 32.2-5.3 43.5-3.3 68.1 2 24.7 1.3 62.8 10 92.5 8.6 29.7 26.6 51 24.5 77.3-2.2 26.4-24.5 57.7-29.6 68.6-5 10.8 7.4 1.1 2.5 31.3-4.8 30.2-26.8 100.3-48.9 170.3"/>
	<path id="Layer" class="s0" d="m899.6 1918.6c17.7-30.3 35.3-60.7 38.6-86.5 3.3-25.9-7.7-47.3 28-60.9 35.6-13.7 117.9-19.5 184.8-26.6 66.9-7 118.5-15.3 170.1-23.5"/>
	<path id="Layer" class="s0" d="m2048.3 1605.8c-15.7-13.2-31.4-26.5-87.1-26-55.7 0.4-151.4 14.5-202.1 23.7-50.7 9.2-56.3 13.4-68.5 13.4-12.3 0-31.1-4.4-45.4-17.6-14.3-13.3-24.1-35.6-34-54.3-9.9-18.7-20-33.8-26-64-6.1-30.1-8.2-75.3-0.7-108.7 7.4-33.4 24.4-55 50.9-73.6 26.5-18.7 62.4-34.4 100.8-45.7 38.3-11.4 79.1-18.3 106.4-15.3 27.2 3 41 16 54.7 29"/>
	<path id="Layer" class="s0" d="m936.7 1481.1c16.2-15.6 32.3-31.3 52.2-43.8 19.9-12.6 43.6-22.2 87.8-35.1 44.3-12.9 109.2-29.2 140.5-39.9 31.4-10.7 29.2-15.7 66.6 0.2 37.4 15.9 114.4 52.7 145.6 91.5 31.2 38.9 16.6 79.7 1.9 120.6"/>
	<path id="Layer" class="s0" d="m743.6 2338.3c32.1-0.1 58.1 27.5 58.1 61.6 0 34.1-26 61.7-58.1 61.7-32.1 0-58.1-27.6-58.1-61.7 0-34.1 26-61.6 58.1-61.7z"/>
	<path id="Layer" class="s1" d="m1815.1 2220.3c-18.8 24.2-41 43.5-67.8 56.2-26.8 12.7-58.2 18.8-97.2 28.3-39 9.6-85.7 22.7-139.9 31.1-54.3 8.3-116 11.9-160 2.7-43.9-9.2-70-31.2-91.4-54.8-21.3-23.6-37.9-48.9-32.5-60.5 5.4-11.7 32.9-9.7 53.5-8.7 20.5 1 34.3 1.1 59.4 0 25.1-1.1 61.6-3.5 84-4.4 22.4-0.9 30.7-0.2 69.9-7.1 39.2-6.9 109.3-21.3 176.3-33.4 67.1-12.1 131.1-21.9 195.2-31.6-15.4 29-30.7 58-49.5 82.2z"/>
	<path id="Layer" class="s2" d="m1828.4 1362.9c33.5 0 60.6 26.9 60.6 60.2 0 33.3-27.1 60.2-60.6 60.2-33.5 0-60.6-26.9-60.6-60.2 0-33.3 27.1-60.2 60.6-60.2z"/>
	<path id="Layer" class="s3" d="m1839 1378.4c11.5 0 20.7 8.8 20.7 19.6 0 10.7-9.2 19.5-20.7 19.5-11.4 0-20.7-8.8-20.7-19.5 0-10.8 9.3-19.6 20.7-19.6z"/>
	<path id="Layer" class="s2" d="m1241.9 1502c33.6 0 60.6 26.9 60.6 60.2 0 33.3-27 60.2-60.6 60.2-33.5 0-60.6-26.9-60.6-60.2 0-33.3 27.1-60.2 60.6-60.2z"/>
	<path id="Layer" class="s3" d="m1252.6 1517.5c11.4 0 20.7 8.8 20.7 19.6 0 10.8-9.3 19.5-20.7 19.5-11.5 0-20.8-8.7-20.8-19.5 0.1-10.8 9.3-19.6 20.8-19.6z"/>
</svg>